<?xml version="1.0" standalone="no"?>
<!DOCTYPE svg PUBLIC "-//W3C//DTD SVG 20010904//EN"
 "http://www.w3.org/TR/2001/REC-SVG-20010904/DTD/svg10.dtd">
<svg version="1.0" xmlns="http://www.w3.org/2000/svg"
 width="142.000000pt" height="142.000000pt" viewBox="0 0 142.000000 142.000000"
 preserveAspectRatio="xMidYMid meet">
<metadata>
Created by potrace 1.11, written by Peter Selinger 2001-2013
</metadata>
<g transform="translate(0.000000,142.000000) scale(0.100000,-0.100000)"
fill="#000000" stroke="none">
<path d="M503 990 c-18 -9 -40 -23 -48 -30 -8 -7 -15 -9 -15 -4 0 5 -4 4 -8
-1 -4 -6 -46 -33 -94 -60 -49 -28 -88 -52 -88 -55 0 -3 10 -10 23 -16 12 -5
56 -28 98 -51 75 -40 76 -41 100 -22 13 10 27 19 31 19 4 0 35 16 68 36 43 25
66 46 75 68 37 89 -54 164 -142 116z"/>
<path d="M854 997 c-29 -15 -51 -41 -47 -54 2 -6 0 -14 -6 -17 -28 -18 33
-106 84 -122 11 -4 36 -17 55 -29 133 -83 252 -146 285 -149 66 -7 121 71 92
129 -11 22 -42 55 -52 55 -9 0 -146 80 -166 97 -9 7 -19 10 -22 6 -4 -3 -7 -2
-7 4 0 6 -8 13 -17 16 -17 6 -78 39 -113 62 -20 13 -64 14 -86 2z"/>
<path d="M187 806 c-54 -24 -76 -91 -45 -138 18 -27 358 -227 400 -235 84 -17
140 73 93 148 -9 15 -251 161 -347 210 -52 27 -67 29 -101 15z"/>
<path d="M990 693 c-8 -3 -26 -14 -39 -24 -13 -10 -27 -16 -32 -13 -5 3 -9 1
-9 -5 0 -5 -20 -20 -44 -32 -51 -25 -92 -98 -65 -115 5 -3 7 -9 4 -13 -7 -12
50 -59 76 -63 25 -3 64 16 232 112 l96 54 -57 29 c-31 16 -68 37 -82 47 -31
22 -60 30 -80 23z"/>
</g>
</svg>
